<?xml version="1.0" encoding="UTF-8"?>
<svg width="128" height="128" viewBox="0 0 128 128" xmlns="http://www.w3.org/2000/svg">
  <rect width="128" height="128" rx="8" fill="#CA0C16"/>
  <path d="M95.42 76.12a37.89 37.89 0 0 1-13.8 13.78c-5.84 3.11-12.45 4.77-19.62 4.77-7.17 0-13.78-1.66-19.62-4.77A37.89 37.89 0 0 1 28.6 76.12c-3.11-5.84-4.77-12.45-4.77-19.62 0-7.17 1.66-13.78 4.77-19.62a37.89 37.89 0 0 1 13.78-13.78c5.84-3.11 12.45-4.77 19.62-4.77 7.17 0 13.78 1.66 19.62 4.77a37.89 37.89 0 0 1 13.8 13.78c3.11 5.84 4.77 12.45 4.77 19.62 0 7.17-1.66 13.78-4.77 19.62zM62 82.67c5.84 0 11.18-1.36 15.92-3.87a28.9 28.9 0 0 0 11.18-11.18c2.51-4.74 3.87-10.08 3.87-15.92 0-5.84-1.36-11.18-3.87-15.92a28.9 28.9 0 0 0-11.18-11.18C73.18 22.09 67.84 20.73 62 20.73c-5.84 0-11.18 1.36-15.92 3.87a28.9 28.9 0 0 0-11.18 11.18c-2.51 4.74-3.87 10.08-3.87 15.92 0 5.84 1.36 11.18 3.87 15.92a28.9 28.9 0 0 0 11.18 11.18c4.74 2.51 10.08 3.87 15.92 3.87z" fill="white"/>
</svg>