<svg xmlns="http://www.w3.org/2000/svg" viewBox="0 0 602 182">
  <path fill="#FF9900" d="M374.006,142.184L374.006,142.184l-22.223-2.084c-0.396-0.049-0.784-0.144-1.161-0.278c-2.686-0.94-3.944-4.038-2.798-6.615l0.214-0.451l18.899-44.777l-36.847,51.851c-1.901,2.678-5.52,3.29-8.198,1.389l-0.001-0.001l-16.936-12.014l16.798,47.943c1.119,3.193-0.558,6.688-3.751,7.807l-0.267,0.089l-21.059,6.39l60.366,0.049c3.379,0,6.118-2.739,6.118-6.118l0-43.182 M434.256,142.184L434.256,142.184l-22.223-2.084c-0.396-0.049-0.784-0.144-1.161-0.278c-2.686-0.94-3.944-4.038-2.798-6.615l0.214-0.451l18.899-44.777l-36.847,51.851c-1.901,2.678-5.52,3.29-8.198,1.389l-0.001-0.001l-16.936-12.014l16.798,47.943c1.119,3.193-0.558,6.688-3.751,7.807l-0.267,0.089l-21.059,6.39l60.366,0.049c3.379,0,6.118-2.739,6.118-6.118l0-43.182"/>
</svg> 