<?xml version="1.0" encoding="UTF-8"?>
<svg width="100" height="100" viewBox="0 0 100 100" xmlns="http://www.w3.org/2000/svg">
  <path d="M70.56 20.27c-4.23 0-8.04 2.43-10.5 6.22-2.23 3.44-1.77 8.21-1.77 8.21s4.82-.75 7.05-4.19c2.46-3.79 5.22-10.24 5.22-10.24zm3.86 16.41c-4.65 0-6.65 2.24-9.87 2.24-3.33 0-5.87-2.19-9.93-2.19-5.01 0-10.3 3.09-10.3 13.06 0 8.16 7.17 21.21 12.94 21.21 3.06 0 5.44-2.04 9.21-2.04 3.67 0 5.54 2.04 9.31 2.04 5.87 0 12.44-12.75 12.44-20.91 0-8.16-7.17-13.41-13.8-13.41z" fill="#000"/>
</svg> 