<?xml version="1.0" encoding="UTF-8"?>
<svg width="100" height="100" viewBox="0 0 100 100" xmlns="http://www.w3.org/2000/svg">
  <path d="M65 35c-3.3 0-6 2.7-6 6 0 .7.1 1.4.3 2H41.7c.2-.6.3-1.3.3-2 0-3.3-2.7-6-6-6s-6 2.7-6 6c0 2.4 1.4 4.4 3.4 5.4-1 2.6-3.4 4.6-6.4 4.6-3.9 0-7-3.1-7-7s3.1-7 7-7c.4 0 .7 0 1.1.1.7-3.2 3.5-5.1 6.9-5.1 2.5 0 4.7 1.3 6 3.2 1.3-1.9 3.5-3.2 6-3.2 3.4 0 6.2 1.9 6.9 5.1.4-.1.7-.1 1.1-.1 3.9 0 7 3.1 7 7s-3.1 7-7 7c-3 0-5.4-2-6.4-4.6 2-1 3.4-3 3.4-5.4 0-3.3-2.7-6-6-6z" fill="#00A1E0"/>
</svg> 