<svg xmlns="http://www.w3.org/2000/svg" viewBox="0 0 448 512">
  <path fill="#95BF47" d="M388.32,104.1a4.66,4.66,0,0,0-4.4-4c-2.4-.2-4.8-.4-7.2-.5-3.6-.1-7.2-.2-10.7-.2-19.9-.2-36.8,1.9-49.5,5.3-3.6-10.5-9-19.9-15.3-28a65.62,65.62,0,0,0-48.9-26.8c-1.5,0-3.1,0-4.6.1C229.7,12,209.6,31.9,195,60.4c-8.1,15.7-14.3,33.9-18.3,50.3-16.3,5.2-30.5,11.5-42.7,17.9C93.1,53.2,64,0,64,0L0,17.5S19.9,77,44.7,138.4c-5.2,16.2-8.7,27.7-8.7,27.7H80.2c0,0,3.5-11.5,8.7-27.7C93.1,53.2,122.2,0,122.2,0L186.2,17.5S166.3,77,141.5,138.4c5.2,16.2,8.7,27.7,8.7,27.7h44.2c0,0-3.5-11.5-8.7-27.7C210.9,53.2,240,0,240,0l64,17.5S284.1,77,259.3,138.4c5.2,16.2,8.7,27.7,8.7,27.7h44.2c0,0-3.5-11.5-8.7-27.7C328.7,53.2,357.8,0,357.8,0l64,17.5S401.9,77,377.1,138.4c5.2,16.2,8.7,27.7,8.7,27.7h44.2C432,166.1,428.5,154.6,423.3,138.4Z"/>
</svg> 